<?xml version="1.0" encoding="UTF-8" standalone="no"?>
<svg
   xmlns:dc="http://purl.org/dc/elements/1.1/"
   xmlns:cc="http://creativecommons.org/ns#"
   xmlns:rdf="http://www.w3.org/1999/02/22-rdf-syntax-ns#"
   xmlns:svg="http://www.w3.org/2000/svg"
   xmlns="http://www.w3.org/2000/svg"
   xmlns:sodipodi="http://sodipodi.sourceforge.net/DTD/sodipodi-0.dtd"
   xmlns:inkscape="http://www.inkscape.org/namespaces/inkscape"
   inkscape:version="1.0 (4035a4fb49, 2020-05-01)"
   sodipodi:docname="logo.svg"
   id="svg8"
   version="1.1"
   viewBox="0 0 33.866666 33.866666"
   height="128"
   width="128"
   inkscape:export-filename="/home/musikid/Images/logo/fancy-5.png"
   inkscape:export-xdpi="15"
   inkscape:export-ydpi="15">
  <defs
     id="defs2" />
  <sodipodi:namedview
     width="128mm"
     fit-margin-bottom="0"
     fit-margin-right="0"
     fit-margin-left="0"
     fit-margin-top="0"
     inkscape:snap-bbox="true"
     inkscape:snap-intersection-paths="true"
     inkscape:snap-to-guides="false"
     inkscape:snap-grids="false"
     inkscape:snap-object-midpoints="true"
     inkscape:object-paths="true"
     inkscape:snap-smooth-nodes="true"
     inkscape:window-maximized="1"
     inkscape:window-y="0"
     inkscape:window-x="0"
     inkscape:window-height="1028"
     inkscape:window-width="1920"
     inkscape:pagecheckerboard="false"
     inkscape:showpageshadow="true"
     showborder="true"
     showgrid="false"
     inkscape:document-rotation="0"
     inkscape:current-layer="layer4"
     inkscape:document-units="px"
     inkscape:cy="64.640735"
     inkscape:cx="80.10607"
     inkscape:zoom="4.0977625"
     inkscape:pageshadow="2"
     inkscape:pageopacity="0.0"
     borderopacity="1.0"
     bordercolor="#666666"
     pagecolor="#ffffff"
     id="base"
     showguides="true"
     units="px" />
  <metadata
     id="metadata5">
    <rdf:RDF>
      <cc:Work
         rdf:about="">
        <dc:format>image/svg+xml</dc:format>
        <dc:type
           rdf:resource="http://purl.org/dc/dcmitype/StillImage" />
        <dc:title></dc:title>
      </cc:Work>
    </rdf:RDF>
  </metadata>
  <g
     transform="translate(2.3150163,-35.273358)"
     inkscape:label="Shadow"
     id="layer4"
     inkscape:groupmode="layer"
     style="display:inline">
    <g
       transform="matrix(0.17375462,0,0,0.17375462,-1.8574038,30.938557)"
       id="g1660"
       style="display:inline">
      <path
         id="path3604"
         style="fill:#5e5c64;fill-opacity:1;fill-rule:nonzero;stroke:none;stroke-width:1.88976;stroke-linecap:butt;stroke-linejoin:miter;stroke-miterlimit:4;stroke-dasharray:none;stroke-opacity:1;paint-order:normal"
         inkscape:transform-center-x="-17.220131"
         inkscape:transform-center-y="-53.580433"
         d="m 524.08594,135.38086 c -114.09398,3.73574 -156.03453,190.34277 -139.39063,309.48242 -0.92051,23.74257 10.47007,86.59467 11.36328,74.25391 1.0385,3.72747 1.79464,4.8373 2,2 1.0385,3.72747 1.79464,4.8373 2,2 1.0385,3.72747 1.79464,4.8373 2,2 1.0385,3.72747 1.79464,4.8373 2,2 1.06293,3.81514 1.83428,4.92641 2.01758,1.83008 2.39798,8.68933 3.3716,4.07982 -0.36914,-30.25782 -16.49813,-97.10094 19.47284,-211.20943 117.06055,-251.26367 25.41128,-11.50066 0.78297,-79.35111 15.91015,-96.33984 L 523.44922,135.875 Z"
         transform="scale(0.26458333)" />
      <path
         transform="scale(0.26458333)"
         d="m 393.8125,518.57422 -4.64258,5.28125 0.008,0.01 c -4.51774,2.95742 -11.49046,7.89046 -21.73632,15.51563 -75.303,63.33982 -191.71713,90.31049 -275.433598,26.93359 -23.969566,-16.83719 -73.853095,45.83152 -94.4335932,33.87305 l -0.00586,0.42383 -2.7871094,-1.90039 c 5.16479657,9.5385 11.3805071,17.75503 18.5292966,24.69922 0.658654,0.6779 1.325007,1.34432 2,2 0.658654,0.6779 1.325007,1.34432 2,2 0.658654,0.6779 1.325007,1.34432 2,2 0.658654,0.6779 1.325007,1.34432 2,2 0.658654,0.6779 1.325007,1.34432 2,2 70.681873,72.7473 236.239384,16.98253 324.591794,-53.09571 14.59248,-7.83993 42.46576,-30.42397 54.28907,-41.55078 l 0.006,0.008 0.0488,-0.0625 c 4.29433,-4.04598 6.49706,-6.59621 5.05274,-6.2871 l 0.006,-0.008 -1.58594,-1.62695 c 0.12444,-0.31851 0.003,-0.44906 -0.37109,-0.37891 l -1.61914,-1.66211 c 0.0917,-0.27089 -0.0199,-0.3854 -0.33204,-0.34179 l -1.6621,-1.70313 c 0.0582,-0.22067 -0.0377,-0.32082 -0.29102,-0.29883 l -1.70117,-1.74609 c 0.0307,-0.17488 -0.0518,-0.26277 -0.25196,-0.25781 l -1.74218,-1.78711 c 0.009,-0.13406 -0.0579,-0.20738 -0.21094,-0.21485 l -1.74023,-1.7871 c 0.0337,-0.1796 -0.0494,-0.26917 -0.25586,-0.26172 z"
         inkscape:transform-center-y="18.548884"
         inkscape:transform-center-x="55.850884"
         style="fill:#5e5c64;fill-opacity:1;fill-rule:nonzero;stroke:none;stroke-width:1.88976;stroke-linecap:butt;stroke-linejoin:miter;stroke-miterlimit:4;stroke-dasharray:none;stroke-opacity:1;paint-order:normal"
         id="path1685" />
      <path
         id="path3602"
         style="fill:#5e5c64;fill-opacity:1;fill-rule:nonzero;stroke:none;stroke-width:1.88976;stroke-linecap:butt;stroke-linejoin:miter;stroke-miterlimit:4;stroke-dasharray:none;stroke-opacity:1;paint-order:normal"
         inkscape:transform-center-x="-43.487338"
         inkscape:transform-center-y="38.229524"
         d="m 393.81055,518.57617 2.02734,2.03906 c 0.0152,0.13202 0.18765,0.30661 0.51953,0.52344 l 1.49024,1.49805 c 0.0277,0.12703 0.18371,0.28908 0.48828,0.49023 l 1.52929,1.53907 c 0.0402,0.11889 0.17242,0.2618 0.43946,0.4414 l 1.57226,1.58203 c 0.0473,0.10515 0.16224,0.22751 0.375,0.37696 l 1.64063,1.65039 c 0.0489,0.0873 0.14556,0.18697 0.30078,0.30273 l 1.71289,1.72461 c 0.045,0.0682 0.12272,0.14406 0.22852,0.22852 l 1.6914,1.70117 0.006,-0.002 c 0.3886,1.05745 9.29572,4.41312 32.1543,11.16015 44.86927,10.38672 88.7599,32.77272 122.73047,64.40235 31.85827,34.33569 52.37719,77.84501 52.17773,127.69335 0.16036,5.06815 2.69977,9.32347 6.79297,13.02344 0.64072,0.71033 1.33538,1.40033 2.08398,2.07227 0.59802,0.65689 1.22564,1.30368 1.91602,1.92773 0.61731,0.68436 1.28238,1.35132 2,2 0.61731,0.6844 1.28238,1.35132 2,2 0.61731,0.68436 1.28238,1.35132 2,2 12.76201,14.14842 47.8711,20.38799 66.72852,30.65821 l 15.89062,9.17578 C 732.95479,748.58124 708.2388,697.5827 664.73842,654.498 c -0.66229,-0.66864 -1.32868,-1.33511 -2,-2 -0.66225,-0.66864 -1.32868,-1.33511 -2,-2 -0.66225,-0.66864 -1.32868,-1.33507 -2,-2 -0.41219,-0.41616 -0.84015,-0.82553 -1.25586,-1.24024 -0.90757,-0.92302 -1.81935,-1.84381 -2.74414,-2.75976 -48.818,-49.28712 -122.42641,-88.50633 -184.67773,-104.81641 -18.24746,-8.45269 -65.78542,-19.55912 -73.26367,-19.39258 z"
         transform="scale(0.26458333)" />
    </g>
    <path
       id="path1587"
       d="m 16.885937,55.430679 -0.629867,-0.642798 0.0049,-0.122639 0.644702,0.697363 z"
       style="display:inline;fill:#5e5c64;fill-opacity:1;stroke:none;stroke-width:0.0459725px;stroke-linecap:butt;stroke-linejoin:miter;stroke-opacity:1" />
    <path
       id="path1595"
       d="m 16.885937,55.430679 0.03887,-0.028 -0.665779,-0.689433 -0.05205,0.129075 0.574787,0.595605 z"
       style="display:inline;fill:#5e5c64;fill-opacity:1;stroke:none;stroke-width:0.0459725px;stroke-linecap:butt;stroke-linejoin:miter;stroke-opacity:1" />
    <path
       style="display:inline;opacity:0.1;fill:#ffffff;fill-opacity:1;stroke:none;stroke-width:0.0459725px;stroke-linecap:butt;stroke-linejoin:miter;stroke-opacity:1"
       d="m 21.36927,41.735939 0.282316,0.814058 c 0.200121,-0.09256 0.290388,-0.09836 0.622044,-0.290444 L 22.413723,42.13943 22.536375,41.963636 21.95396,41.09918 Z"
       id="path2587"
       sodipodi:nodetypes="ccccccc" />
    <path
       style="display:inline;opacity:0.15;fill:#ffffff;fill-opacity:1;stroke:none;stroke-width:0.0459725px;stroke-linecap:butt;stroke-linejoin:miter;stroke-opacity:1"
       d="m 30.496565,64.316095 -0.06361,-0.246956 0.39744,-0.05424 0.09586,0.241287 z"
       id="path2589" />
    <path
       style="display:inline;opacity:0.25;fill:#ffffff;fill-opacity:1;stroke:none;stroke-width:0.0459725px;stroke-linecap:butt;stroke-linejoin:miter;stroke-opacity:1"
       d="m 30.588824,64.828733 0.0326,0.697857 0.623536,0.05812 c 0.02563,0.290988 -0.02014,-0.137529 -0.03323,-0.286028 l -0.04225,-0.238003 -0.05842,-0.256083 z"
       id="path2609"
       sodipodi:nodetypes="ccccccc" />
  </g>
  <g
     transform="translate(2.3150163,-35.273358)"
     inkscape:label="Fan"
     id="layer2"
     inkscape:groupmode="layer"
     style="display:inline">
    <g
       transform="matrix(0.17375462,0,0,0.17375462,-1.8574038,30.938558)"
       id="g1289"
       style="display:inline;fill:#deddda;fill-opacity:1;stroke:none;stroke-width:0.5;stroke-linecap:butt;stroke-linejoin:miter;stroke-miterlimit:4;stroke-dasharray:none;stroke-opacity:1;paint-order:normal">
      <path
         id="path14-3-7-6"
         style="fill:#deddda;fill-opacity:1;fill-rule:nonzero;stroke:none;stroke-width:0.5;stroke-linecap:butt;stroke-linejoin:miter;stroke-miterlimit:4;stroke-dasharray:none;stroke-opacity:1;paint-order:normal"
         d="m 184.10574,210.38377 c 14.34355,-29.01647 -28.54073,-59.81032 -60.26475,-68.12213 -7.35691,-3.40791 -32.708868,-8.44575 -11.13205,-2.07705 25.36415,5.8715 49.56374,26.21913 49.45258,54.00024 0.26452,8.36042 24.92689,8.39418 21.94422,16.19894 z"
         sodipodi:nodetypes="ccccc"
         inkscape:transform-center-x="-43.487338"
         inkscape:transform-center-y="38.229524" />
      <path
         inkscape:transform-center-y="-53.580433"
         inkscape:transform-center-x="-17.220131"
         sodipodi:nodetypes="ccccc"
         d="M 140.93701,35.334061 C 108.6353,33.262294 96.717304,84.694619 101.2547,117.17402 c -0.31411,8.10181 4.79281,33.43994 2.36711,11.074 -4.342146,-25.67022 5.12503,-55.836736 30.80919,-66.425732 7.61469,-3.461664 -1.84549,-26.237501 6.50601,-26.488227 z"
         style="fill:#deddda;fill-opacity:1;fill-rule:nonzero;stroke:none;stroke-width:0.5;stroke-linecap:butt;stroke-linejoin:miter;stroke-miterlimit:4;stroke-dasharray:none;stroke-opacity:1;paint-order:normal"
         id="path14-3-7-0-7" />
      <path
         id="path14-3-7-0-9-5"
         style="fill:#deddda;fill-opacity:1;fill-rule:nonzero;stroke:none;stroke-width:0.5;stroke-linecap:butt;stroke-linejoin:miter;stroke-miterlimit:4;stroke-dasharray:none;stroke-opacity:1;paint-order:normal"
         d="m -2.3150163,157.13144 c 14.5928793,28.89188 64.9662833,13.08547 90.6601463,-7.29406 7.142356,-3.83729 26.39226,-21.08672 8.344625,-7.65533 -19.923918,16.75866 -50.725271,23.89465 -72.875253,7.12618 -6.844692,-4.80799 -21.6787888,14.89438 -26.1295183,7.82321 z"
         sodipodi:nodetypes="ccccc"
         inkscape:transform-center-x="55.850884"
         inkscape:transform-center-y="18.548884" />
    </g>
    <path
       id="path2771"
       d="m 17.197156,40.979756 0.90943,3.324438 c 0.282924,-0.361206 0.579718,-0.693474 0.893689,-0.998792 l -1.03279,-3.666957 c -0.328853,0.515854 -0.617846,0.976048 -0.770329,1.341311 z"
       style="display:inline;opacity:0.4;fill:#ffffff;fill-opacity:1;stroke:none;stroke-width:0.0459724px;stroke-linecap:butt;stroke-linejoin:miter;stroke-opacity:1"
       sodipodi:nodetypes="ccccc" />
    <path
       id="path949"
       d="m 3.5613772,57.676207 -0.8852667,3.30386 1.43989,-0.05801 0.7337123,-2.738249 z"
       style="display:inline;opacity:0.25;fill:#ffffff;fill-opacity:1;stroke:none;stroke-width:0.069469px;stroke-linecap:butt;stroke-linejoin:miter;stroke-opacity:1" />
  </g>
</svg>
